<mxfile host="app.diagrams.net" modified="2024-01-27T01:47:03.306Z" agent="Mozilla/5.0 (Windows NT 10.0; Win64; x64) AppleWebKit/537.36 (KHTML, like Gecko) Chrome/120.0.0.0 Safari/537.36" version="23.0.2" etag="-BArMD067mRjKVrtB9ZU" type="github">
  <diagram name="PÃ¡gina-1" id="_5AmYpYGJjebitOYCLJC">
    <mxGraphModel>
      <root>
        <mxCell id="0" />
        <mxCell id="1" parent="0" />
      </root>
    </mxGraphModel>
  </diagram>
</mxfile>
